<?xml version="1.0" encoding="utf-8"?>
<!-- Generator: Adobe Illustrator 13.0.0, SVG Export Plug-In . SVG Version: 6.00 Build 14948)  -->
<!DOCTYPE svg PUBLIC "-//W3C//DTD SVG 1.1//EN" "http://www.w3.org/Graphics/SVG/1.1/DTD/svg11.dtd">
<svg version="1.1" id="Layer_1" xmlns="http://www.w3.org/2000/svg" xmlns:xlink="http://www.w3.org/1999/xlink" x="0px" y="0px"
	 width="512px" height="512px" viewBox="0 0 512 512" enable-background="new 0 0 512 512" xml:space="preserve">
<g>
	<path d="M256.5,255.5c70.694,0,128-57.306,128-128s-57.306-128-128-128c-70.688,0-128,57.306-128,128
		C128.569,198.167,185.833,255.444,256.5,255.5z M256.5,42.167c47.125,0,85.333,38.208,85.333,85.333s-38.208,85.333-85.333,85.333
		s-85.333-38.208-85.333-85.333S209.375,42.167,256.5,42.167z"/>
	<path d="M256.5,298.167c-105.986,0.125-191.889,86-192,192c0,11.791,9.556,21.333,21.333,21.333s21.333-9.542,21.333-21.333
		c0-82.473,66.854-149.334,149.333-149.334c82.473,0,149.333,66.861,149.333,149.334c0,11.791,9.556,21.333,21.334,21.333
		c11.777,0,21.333-9.542,21.333-21.333C448.389,384.167,362.486,298.292,256.5,298.167z"/>
</g>
</svg>
