<?xml version="1.0" encoding="utf-8"?>
<!-- Generator: Adobe Illustrator 13.0.0, SVG Export Plug-In . SVG Version: 6.00 Build 14948)  -->
<!DOCTYPE svg PUBLIC "-//W3C//DTD SVG 1.1//EN" "http://www.w3.org/Graphics/SVG/1.1/DTD/svg11.dtd">
<svg version="1.1" id="Layer_1" xmlns="http://www.w3.org/2000/svg" xmlns:xlink="http://www.w3.org/1999/xlink" x="0px" y="0px"
	 width="512px" height="512px" viewBox="0 0 512 512" enable-background="new 0 0 512 512" xml:space="preserve">
<g>
	<path d="M490.086,255.5c-10.801-0.12-19.921,7.98-21.07,18.73c-10.131,117.172-113.332,203.943-230.514,193.813
		c-50.771-4.39-98.271-26.83-133.907-63.271h58.541c11.78,0,21.325-9.54,21.325-21.311c0-11.79-9.545-21.33-21.325-21.33H77.835
		c-23.556,0-42.651,19.1-42.651,42.641v85.312c0,11.779,9.545,21.34,21.325,21.34c11.78,0,21.326-9.561,21.326-21.34v-52.001
		c100.531,98.961,262.249,97.691,361.21-2.83c41.49-42.15,67.061-97.401,72.361-156.293c1.1-11.81-7.58-22.27-19.4-23.38
		C491.365,255.54,490.726,255.5,490.086,255.5z"/>
	<path d="M454.495-0.424c-11.78,0-21.33,9.57-21.33,21.34v52c-100.521-98.961-262.25-97.691-361.206,2.83
		C30.469,117.898,4.893,173.149-0.406,232.04c-1.095,11.81,7.58,22.271,19.395,23.38c0.645,0.04,1.28,0.08,1.925,0.08
		c10.805,0.12,19.93-7.98,21.075-18.73C52.114,119.598,155.321,32.827,272.502,42.957c50.761,4.39,98.271,26.83,133.902,63.271
		h-58.541c-11.78,0-21.33,9.541-21.33,21.311c0,11.79,9.55,21.33,21.33,21.33h85.302c23.56,0,42.66-19.1,42.66-42.641V20.917
		C475.825,9.146,466.266-0.424,454.495-0.424z"/>
</g>
</svg>
