<?xml version="1.0" encoding="utf-8"?>
<!-- Generator: Adobe Illustrator 13.0.0, SVG Export Plug-In . SVG Version: 6.00 Build 14948)  -->
<!DOCTYPE svg PUBLIC "-//W3C//DTD SVG 1.1//EN" "http://www.w3.org/Graphics/SVG/1.1/DTD/svg11.dtd">
<svg version="1.1" id="Layer_1" xmlns="http://www.w3.org/2000/svg" xmlns:xlink="http://www.w3.org/1999/xlink" x="0px" y="0px"
	 width="512px" height="512px" viewBox="0 0 512 512" enable-background="new 0 0 512 512" xml:space="preserve">
<g>
	<g>
		<path d="M106.165,354.85v28.65c0,11.79,9.555,21.33,21.335,21.33h28.655c28.305,0.09,55.465-11.16,75.405-31.23l260.1-260.09
			c25.96-26.02,25.96-68.145,0-94.165c-26.34-25.18-67.82-25.18-94.16,0L137.406,279.439
			C117.335,299.399,106.095,326.56,106.165,354.85z M148.835,354.85c0.05-16.95,6.78-33.229,18.74-45.25L427.66,49.51
			c9.46-9.04,24.37-9.04,33.84,0c9.32,9.35,9.32,24.48,0,33.83l-260.1,260.1c-12.02,11.96-28.285,18.681-45.245,18.73h-7.32V354.85z
			 M490.16,191.06c-11.78,0-21.32,9.54-21.32,21.34v107.1H383.5c-35.34,0-64,28.67-64,64v85.329H106.165
			c-35.34,0-64-28.64-64-63.999V106.16c0-35.34,28.66-63.995,64-63.995H299.06c11.78,0,21.341-9.54,21.341-21.33
			C320.401,9.05,310.84-0.5,299.06-0.5H106.165C47.29-0.425-0.425,47.29-0.5,106.16v298.67
			c0.075,58.88,47.79,106.609,106.665,106.67H348.16c28.3,0.079,55.46-11.171,75.42-31.23l56.67-56.71
			c20.069-19.96,31.33-47.1,31.25-75.41V212.4C511.5,200.6,501.95,191.06,490.16,191.06z M450.16,393.399l-56.74,56.7
			c-8.58,8.57-19.42,14.479-31.26,17.07V383.5c0-11.771,9.56-21.33,21.34-21.33h83.74C464.6,373.979,458.68,384.81,450.16,393.399z"
			/>
	</g>
</g>
</svg>
