<?xml version="1.0" encoding="utf-8"?>
<!-- Generator: Adobe Illustrator 13.0.0, SVG Export Plug-In . SVG Version: 6.00 Build 14948)  -->
<!DOCTYPE svg PUBLIC "-//W3C//DTD SVG 1.1//EN" "http://www.w3.org/Graphics/SVG/1.1/DTD/svg11.dtd">
<svg version="1.1" id="Layer_1" xmlns="http://www.w3.org/2000/svg" xmlns:xlink="http://www.w3.org/1999/xlink" x="0px" y="0px"
	 width="512px" height="512px" viewBox="0 0 512 512" enable-background="new 0 0 512 512" xml:space="preserve">
<g>
	<path d="M362.17,298.167c0,11.777-9.556,21.333-21.334,21.333H170.163c-11.778,0-21.333-9.556-21.333-21.333
		c0-11.792,9.555-21.334,21.333-21.334h170.673C352.615,276.833,362.17,286.375,362.17,298.167z M276.836,362.167H170.163
		c-11.778,0-21.333,9.555-21.333,21.333c0,11.777,9.555,21.333,21.333,21.333h106.673c11.778,0,21.334-9.556,21.334-21.333
		C298.17,371.722,288.615,362.167,276.836,362.167z M468.836,223.181v181.652c-0.056,58.889-47.777,106.598-106.666,106.667H148.83
		c-58.882-0.069-106.604-47.778-106.667-106.667V106.167C42.226,47.278,89.948-0.444,148.83-0.5h96.319
		c39.631-0.111,77.66,15.639,105.604,43.722l74.333,74.361C453.198,145.528,468.948,183.556,468.836,223.181z M320.586,73.389
		c-6.722-6.5-14.25-12.097-22.416-16.639v92.069c0,11.792,9.555,21.333,21.333,21.333h92.083
		c-4.556-8.167-10.139-15.694-16.666-22.403L320.586,73.389z M426.169,223.181c0-3.514-0.694-6.903-1-10.347H319.503
		c-35.361,0-64.007-28.653-64.007-64.014V43.167c-3.444-0.333-6.847-1-10.347-1H148.83c-35.347,0-63.993,28.639-63.993,64v298.666
		c0,35.348,28.646,64,63.993,64h213.34c35.36,0,63.999-28.652,63.999-64V223.181z"/>
</g>
</svg>
