<?xml version="1.0" encoding="utf-8"?>
<!-- Generator: Adobe Illustrator 13.0.0, SVG Export Plug-In . SVG Version: 6.00 Build 14948)  -->
<!DOCTYPE svg PUBLIC "-//W3C//DTD SVG 1.1//EN" "http://www.w3.org/Graphics/SVG/1.1/DTD/svg11.dtd">
<svg version="1.1" id="Layer_1" xmlns="http://www.w3.org/2000/svg" xmlns:xlink="http://www.w3.org/1999/xlink" x="0px" y="0px"
	 width="512px" height="512px" viewBox="0 0 512 512" enable-background="new 0 0 512 512" xml:space="preserve">
<g>
	<path d="M404.833,42.167H383.5V20.833c0-11.778-9.556-21.333-21.333-21.333c-11.778,0-21.334,9.556-21.334,21.333v21.333H170.167
		V20.833c0-11.778-9.555-21.333-21.333-21.333S127.5,9.056,127.5,20.833v21.333h-21.333C47.278,42.236-0.43,89.944-0.5,148.833v256
		c0.069,58.89,47.778,106.598,106.667,106.667h298.667c58.89-0.069,106.598-47.777,106.667-106.667v-256
		C511.431,89.944,463.723,42.236,404.833,42.167z M42.167,148.833c0-35.347,28.653-64,64-64h298.667c35.348,0,64,28.653,64,64
		v21.333H42.167V148.833z M404.833,468.833H106.167c-35.347,0-64-28.652-64-64v-192h426.667v192
		C468.833,440.181,440.181,468.833,404.833,468.833z"/>
	<path d="M255.5,287.5c17.681,0,32,14.319,32,32s-14.319,32-32,32s-32-14.319-32-32S237.82,287.5,255.5,287.5z"/>
	<path d="M148.834,287.5c17.68,0,32,14.319,32,32s-14.32,32-32,32c-17.681,0-32-14.319-32-32S131.153,287.5,148.834,287.5z"/>
	<path d="M362.167,287.5c17.681,0,32,14.319,32,32s-14.319,32-32,32s-32-14.319-32-32S344.487,287.5,362.167,287.5z"/>
</g>
</svg>
