<?xml version="1.0" encoding="utf-8"?>
<!-- Generator: Adobe Illustrator 13.0.0, SVG Export Plug-In . SVG Version: 6.00 Build 14948)  -->
<!DOCTYPE svg PUBLIC "-//W3C//DTD SVG 1.1//EN" "http://www.w3.org/Graphics/SVG/1.1/DTD/svg11.dtd">
<svg version="1.1" id="Layer_1" xmlns="http://www.w3.org/2000/svg" xmlns:xlink="http://www.w3.org/1999/xlink" x="0px" y="0px"
	 width="512px" height="512px" viewBox="0 0 512 512" enable-background="new 0 0 512 512" xml:space="preserve">
<path d="M508.834,160.64c-5.931-20.889-19.903-38.625-38.765-49.333L312.736,36.375c-34.626-20.695-77.709-21.07-112.696-0.986
	L40.955,111.307c-0.597,0.292-1.208,0.611-1.792,0.958C1.413,133.848-11.684,181.96,9.9,219.71
	c7.333,12.792,18.083,23.292,31.056,30.264l43.903,20.903V375.42c0,46.723,30.417,88.015,75.056,101.917
	c31.07,8.973,63.278,13.389,95.612,13.056c32.306,0.361,64.5-4,95.584-12.958c44.625-13.875,75.042-55.182,75.056-101.918V270.835
	l42.668-20.402v175.96c0,11.777,9.569,21.333,21.333,21.333s21.333-9.556,21.333-21.333V170.39
	C511.431,166.974,510.515,163.626,508.834,160.64z M383.5,375.517c0.014,27.959-18.126,52.695-44.793,61.07
	c-27.056,7.722-55.056,11.472-83.181,11.139c-28.153,0.333-56.167-3.417-83.209-11.139c-26.667-8.375-44.82-33.111-44.792-61.07
	v-84.306l70.75,33.708c17.458,10.348,37.389,15.806,57.709,15.765c19.333,0.125,38.333-4.973,54.958-14.806l72.557-34.667V375.517z
	 M451.764,211.46l-160.89,76.806c-22.431,13.07-50.223,12.695-72.306-0.958L61.15,212.418
	c-17.542-9.458-24.111-31.361-14.653-48.903c3.208-5.931,8-10.847,13.861-14.181l159.876-76.375
	c22.458-13.042,50.25-12.667,72.334,0.958l157.279,74.931c11.583,6.417,18.833,18.57,18.986,31.792
	C468.848,193.168,462.404,204.835,451.764,211.46L451.764,211.46z"/>
</svg>
