<?xml version="1.0" encoding="utf-8"?>
<!-- Generator: Adobe Illustrator 13.0.0, SVG Export Plug-In . SVG Version: 6.00 Build 14948)  -->
<!DOCTYPE svg PUBLIC "-//W3C//DTD SVG 1.1//EN" "http://www.w3.org/Graphics/SVG/1.1/DTD/svg11.dtd">
<svg version="1.1" id="Layer_1" xmlns="http://www.w3.org/2000/svg" xmlns:xlink="http://www.w3.org/1999/xlink" x="0px" y="0px"
	 width="512px" height="512px" viewBox="0 0 512 512" enable-background="new 0 0 512 512" xml:space="preserve">
<path d="M404.833,84.833H319.5V63.5c0-35.361-28.652-64-64-64c-35.347,0-64,28.639-64,64v21.333h-85.333
	C47.278,84.889-0.43,132.625-0.5,191.5v213.333C-0.43,463.708,47.278,511.444,106.167,511.5h298.667
	c58.89-0.056,106.598-47.792,106.667-106.667V191.5C511.431,132.625,463.723,84.889,404.833,84.833z M234.167,63.5
	c0-11.792,9.556-21.333,21.333-21.333c11.777,0,21.333,9.542,21.333,21.333v42.667c0,11.792-9.556,21.333-21.333,21.333
	c-11.778,0-21.333-9.542-21.333-21.333V63.5z M468.833,404.833c0,35.361-28.652,64-64,64H106.167c-35.347,0-64-28.639-64-64V191.5
	c0-35.361,28.653-64,64-64h89.264c11.542,33.194,47.819,50.708,81,39.139c18.347-6.389,32.764-20.805,39.139-39.139h89.264
	c35.348,0,64,28.639,64,64V404.833z M212.834,212.833H106.167c-11.778,0-21.333,9.542-21.333,21.333v170.667
	c0,11.792,9.555,21.334,21.333,21.334h106.667c11.778,0,21.333-9.542,21.333-21.334V234.167
	C234.167,222.375,224.612,212.833,212.834,212.833z M191.5,383.5h-64v-128h64V383.5z M426.167,319.5
	c0,11.792-9.556,21.333-21.334,21.333H298.167c-11.778,0-21.334-9.541-21.334-21.333s9.556-21.333,21.334-21.333h106.666
	C416.612,298.167,426.167,307.708,426.167,319.5z M426.167,234.167c0,11.792-9.556,21.333-21.334,21.333H298.167
	c-11.778,0-21.334-9.542-21.334-21.333c0-11.792,9.556-21.333,21.334-21.333h106.666
	C416.612,212.833,426.167,222.375,426.167,234.167z M383.5,404.833c0,11.792-9.556,21.334-21.333,21.334h-64
	c-11.778,0-21.334-9.542-21.334-21.334c0-11.791,9.556-21.333,21.334-21.333h64C373.945,383.5,383.5,393.042,383.5,404.833z"/>
</svg>
