<?xml version="1.0" encoding="utf-8"?>
<!-- Generator: Adobe Illustrator 13.0.0, SVG Export Plug-In . SVG Version: 6.00 Build 14948)  -->
<!DOCTYPE svg PUBLIC "-//W3C//DTD SVG 1.1//EN" "http://www.w3.org/Graphics/SVG/1.1/DTD/svg11.dtd">
<svg version="1.1" id="Layer_1" xmlns="http://www.w3.org/2000/svg" xmlns:xlink="http://www.w3.org/1999/xlink" x="0px" y="0px"
	 width="512px" height="512px" viewBox="0 0 512 512" enable-background="new 0 0 512 512" xml:space="preserve">
<g>
	<path d="M255.5-0.5c-141.389,0-256,114.611-256,256c0,141.375,114.611,256,256,256s256-114.625,256-256
		C511.348,114.181,396.82-0.347,255.5-0.5z M255.5,468.833c-117.819,0-213.333-95.527-213.333-213.333
		c0-117.819,95.514-213.333,213.333-213.333S468.833,137.681,468.833,255.5C468.708,373.277,373.278,468.708,255.5,468.833z"/>
	<path d="M255.5,106.167c-11.778,0-21.333,9.556-21.333,21.333v170.667c0,11.777,9.556,21.333,21.333,21.333
		c11.777,0,21.333-9.556,21.333-21.333V127.5C276.833,115.722,267.278,106.167,255.5,106.167z"/>
	<path d="M255.5,362.167L255.5,362.167c11.777,0,21.333,9.541,21.333,21.333l0,0c0,11.792-9.556,21.333-21.333,21.333l0,0
		c-11.778,0-21.333-9.541-21.333-21.333l0,0C234.167,371.708,243.722,362.167,255.5,362.167z"/>
</g>
</svg>
