<?xml version="1.0" encoding="utf-8"?>
<!-- Generator: Adobe Illustrator 13.0.0, SVG Export Plug-In . SVG Version: 6.00 Build 14948)  -->
<!DOCTYPE svg PUBLIC "-//W3C//DTD SVG 1.1//EN" "http://www.w3.org/Graphics/SVG/1.1/DTD/svg11.dtd">
<svg version="1.1" id="Layer_1" xmlns="http://www.w3.org/2000/svg" xmlns:xlink="http://www.w3.org/1999/xlink" x="0px" y="0px"
	 width="512px" height="512px" viewBox="0 0 512 512" enable-background="new 0 0 512 512" xml:space="preserve">
<g>
	<g>
		<path d="M255.503,127.5c-47.125,0-85.333,38.208-85.333,85.333c0,47.125,38.208,85.333,85.333,85.333
			c47.125,0,85.333-38.208,85.333-85.333C340.836,165.708,302.628,127.5,255.503,127.5z M255.503,255.499
			c-23.555,0-42.667-19.111-42.667-42.667c0-23.569,19.111-42.667,42.667-42.667c23.556,0,42.667,19.097,42.667,42.667
			C298.17,236.388,279.059,255.499,255.503,255.499z M255.545-0.5C137.08-0.514,41.025,95.5,40.997,213.972
			c0,54.125,41.236,138.444,122.535,250.583c21.25,29.652,55.527,47.124,91.972,46.944c36.444,0.18,70.723-17.292,91.973-46.944
			c81.305-112.139,122.527-196.458,122.527-250.583C469.975,95.542,373.975-0.458,255.545-0.5z M309.795,437.29
			c-4.153,5.709-9.167,10.723-14.875,14.875c-29.986,21.765-71.944,15.098-93.708-14.875
			C127.913,336.18,87.525,256.888,87.525,214.013c0.104-92.722,75.257-167.86,167.979-167.972
			c92.723,0.111,167.875,75.25,167.972,167.972C423.475,256.888,383.086,336.18,309.795,437.29z"/>
	</g>
</g>
</svg>
