<?xml version="1.0" encoding="utf-8"?>
<!-- Generator: Adobe Illustrator 13.0.0, SVG Export Plug-In . SVG Version: 6.00 Build 14948)  -->
<!DOCTYPE svg PUBLIC "-//W3C//DTD SVG 1.1//EN" "http://www.w3.org/Graphics/SVG/1.1/DTD/svg11.dtd">
<svg version="1.1" id="Layer_1" xmlns="http://www.w3.org/2000/svg" xmlns:xlink="http://www.w3.org/1999/xlink" x="0px" y="0px"
	 width="512px" height="512px" viewBox="0 0 512 512" enable-background="new 0 0 512 512" xml:space="preserve">
<g>
	<g>
		<path d="M447.5,84.833h-66.125C371.167,35.208,327.5-0.438,276.833-0.5h-42.667C183.5-0.438,139.834,35.208,129.625,84.833H63.5
			c-11.781,0-21.333,9.542-21.333,21.333c0,11.792,9.552,21.333,21.333,21.333h21.333v277.333
			C84.906,463.708,132.625,511.438,191.5,511.5h128c58.875-0.063,106.583-47.792,106.667-106.667V127.5H447.5
			c11.792,0,21.333-9.542,21.333-21.333C468.833,94.375,459.292,84.833,447.5,84.833z M234.167,42.167h42.667
			c27.125,0.042,51.292,17.125,60.354,42.667H173.813C182.875,59.292,207.042,42.208,234.167,42.167z M383.5,404.833
			c0,35.354-28.667,64-64,64h-128c-35.333,0-64-28.646-64-64V127.5h256V404.833z M212.834,383.5
			c11.792,0,21.333-9.542,21.333-21.333v-128c0-11.792-9.542-21.333-21.333-21.333c-11.792,0-21.333,9.542-21.333,21.333v128
			C191.5,373.958,201.042,383.5,212.834,383.5z M298.167,383.5c11.791,0,21.333-9.542,21.333-21.333v-128
			c0-11.792-9.542-21.333-21.333-21.333c-11.792,0-21.334,9.542-21.334,21.333v128C276.833,373.958,286.375,383.5,298.167,383.5z"/>
	</g>
</g>
</svg>
