<?xml version="1.0" encoding="utf-8"?>
<!-- Generator: Adobe Illustrator 13.0.0, SVG Export Plug-In . SVG Version: 6.00 Build 14948)  -->
<!DOCTYPE svg PUBLIC "-//W3C//DTD SVG 1.1//EN" "http://www.w3.org/Graphics/SVG/1.1/DTD/svg11.dtd">
<svg version="1.1" id="Layer_1" xmlns="http://www.w3.org/2000/svg" xmlns:xlink="http://www.w3.org/1999/xlink" x="0px" y="0px"
	 width="512px" height="512px" viewBox="0 0 512 512" enable-background="new 0 0 512 512" xml:space="preserve">
<g>
	<path d="M412.042,312.312c-32.709,0.041-63.292,16.166-81.792,43.125l-138.719-62.625c9.833-23.771,9.875-50.5,0.104-74.292
		l138.49-62.979c31.208,45.125,93.042,56.396,138.167,25.229c45.125-31.208,56.417-93.063,25.208-138.167
		c-31.208-45.083-93.041-56.396-138.167-25.208c-26.833,18.583-42.875,49.167-42.791,81.833c0.083,5.625,0.625,11.229,1.666,16.75
		L166.99,182.895c-40.104-37.563-103.052-35.521-140.604,4.563c-37.563,40.104-35.511,103.063,4.563,140.604
		c38.146,35.729,97.417,35.854,135.708,0.291l147.636,66.667c-1.042,5.521-1.584,11.104-1.667,16.75
		c-0.042,54.896,44.5,99.458,99.417,99.458s99.458-44.5,99.458-99.438s-44.5-99.458-99.416-99.479H412.042z M412.042,42.394
		c31.375,0,56.833,25.417,56.833,56.813c0.042,31.396-25.416,56.833-56.791,56.854c-31.376,0-56.834-25.417-56.876-56.792v-0.042
		C355.25,67.853,380.667,42.436,412.042,42.394z M99.51,312.312c-31.385,0.021-56.833-25.417-56.844-56.792
		c-0.021-31.396,25.406-56.854,56.802-56.854c31.396-0.021,56.854,25.417,56.854,56.792c0,0.021,0,0.021,0,0.021
		C156.281,286.853,130.865,312.27,99.51,312.312z M412.042,468.582c-31.375,0-56.834-25.458-56.834-56.813
		c0-31.417,25.459-56.854,56.834-56.854s56.833,25.438,56.833,56.854l0,0C468.834,443.124,443.417,468.562,412.042,468.582z"/>
</g>
</svg>
