<?xml version="1.0" encoding="utf-8"?>
<!-- Generator: Adobe Illustrator 13.0.0, SVG Export Plug-In . SVG Version: 6.00 Build 14948)  -->
<!DOCTYPE svg PUBLIC "-//W3C//DTD SVG 1.1//EN" "http://www.w3.org/Graphics/SVG/1.1/DTD/svg11.dtd">
<svg version="1.1" id="Layer_1" xmlns="http://www.w3.org/2000/svg" xmlns:xlink="http://www.w3.org/1999/xlink" x="0px" y="0px"
	 width="512px" height="512px" viewBox="0 0 512 512" enable-background="new 0 0 512 512" xml:space="preserve">
<path d="M404.833,20.833H106.167C47.278,20.903-0.431,68.611-0.5,127.5v256c0.069,58.875,47.778,106.611,106.667,106.667h298.667
	c58.89-0.056,106.598-47.792,106.667-106.667v-256C511.431,68.611,463.723,20.903,404.833,20.833z M106.167,63.5h298.667
	c26.14,0.056,49.611,15.986,59.306,40.264L300.777,267.146c-25.041,24.938-65.514,24.938-90.548,0L46.861,103.764
	C56.556,79.486,80.028,63.556,106.167,63.5z M404.833,447.5H106.167c-35.347,0-64-28.639-64-64v-224l137.896,137.806
	c41.701,41.583,109.174,41.583,150.882,0L468.833,159.5v224C468.833,418.861,440.181,447.5,404.833,447.5z"/>
</svg>
