<?xml version="1.0" encoding="utf-8"?>
<!-- Generator: Adobe Illustrator 13.0.0, SVG Export Plug-In . SVG Version: 6.00 Build 14948)  -->
<!DOCTYPE svg PUBLIC "-//W3C//DTD SVG 1.1//EN" "http://www.w3.org/Graphics/SVG/1.1/DTD/svg11.dtd">
<svg version="1.1" id="Layer_1" xmlns="http://www.w3.org/2000/svg" xmlns:xlink="http://www.w3.org/1999/xlink" x="0px" y="0px"
	 width="512px" height="512px" viewBox="0 0 512 512" enable-background="new 0 0 512 512" xml:space="preserve">
<g>
	<g>
		<path d="M490.167,340.833c-11.792,0-21.334,9.542-21.334,21.334V447.5c0,11.792-9.541,21.333-21.333,21.333h-384
			c-11.781,0-21.333-9.541-21.333-21.333v-85.333c0-11.792-9.552-21.334-21.333-21.334S-0.5,350.375-0.5,362.167V447.5
			c0,35.375,28.656,64,64,64h384c35.333,0,64-28.625,64-64v-85.333C511.5,350.375,501.958,340.833,490.167,340.833z
			 M112.406,288.333l97.833,97.834c25.042,24.916,65.479,24.916,90.51,0l97.833-97.834c8.5-8.166,8.709-21.666,0.542-30.166
			c-8.208-8.458-21.708-8.708-30.167-0.5c-0.208,0.166-0.375,0.333-0.541,0.5l-91.594,91.541V20.833
			c0-11.792-9.542-21.333-21.333-21.333c-11.771,0-21.333,9.542-21.333,21.333V349.75l-91.583-91.583
			c-8.167-8.5-21.667-8.708-30.167-0.542c-8.458,8.208-8.708,21.708-0.5,30.167C112.073,287.958,112.24,288.167,112.406,288.333z"/>
	</g>
</g>
</svg>
