<?xml version="1.0" encoding="utf-8"?>
<!-- Generator: Adobe Illustrator 13.0.0, SVG Export Plug-In . SVG Version: 6.00 Build 14948)  -->
<!DOCTYPE svg PUBLIC "-//W3C//DTD SVG 1.1//EN" "http://www.w3.org/Graphics/SVG/1.1/DTD/svg11.dtd">
<svg version="1.1" id="Layer_1" xmlns="http://www.w3.org/2000/svg" xmlns:xlink="http://www.w3.org/1999/xlink" x="0px" y="0px"
	 width="512px" height="512px" viewBox="0 0 512 512" enable-background="new 0 0 512 512" xml:space="preserve">
<path id="Add_Icon" d="M255.5-0.5c-141.385,0-256,114.61-256,256c0,141.39,114.615,256,256,256c141.4,0,256-114.61,256-256
	C511.34,114.17,396.84-0.35,255.5-0.5z M255.5,468.83c-117.825,0-213.335-95.5-213.335-213.33S137.675,42.16,255.5,42.16
	c117.84,0,213.34,95.51,213.34,213.34C468.691,373.26,373.27,468.68,255.5,468.83z M362.16,255.5c0,11.76-9.561,21.33-21.32,21.33
	h-64v64c0,11.77-9.57,21.33-21.34,21.33c-11.77,0-21.34-9.561-21.34-21.33v-64h-63.995c-11.78,0-21.33-9.57-21.33-21.33
	c0-11.78,9.55-21.34,21.33-21.34h63.995v-64c0-11.78,9.57-21.33,21.34-21.33c11.77,0,21.34,9.55,21.34,21.33v64h64
	C352.6,234.16,362.16,243.72,362.16,255.5z"/>
</svg>
