<?xml version="1.0" encoding="utf-8"?>
<!-- Generator: Adobe Illustrator 13.0.0, SVG Export Plug-In . SVG Version: 6.00 Build 14948)  -->
<!DOCTYPE svg PUBLIC "-//W3C//DTD SVG 1.1//EN" "http://www.w3.org/Graphics/SVG/1.1/DTD/svg11.dtd">
<svg version="1.1" id="Layer_1" xmlns="http://www.w3.org/2000/svg" xmlns:xlink="http://www.w3.org/1999/xlink" x="0px" y="0px"
	 width="512px" height="512px" viewBox="0 0 512 512" enable-background="new 0 0 512 512" xml:space="preserve">
<g>
	<g opacity="0.5">
		<path fill="#FCBDFF" d="M416.165,416.943L416.165,416.943c-6.526,0-11.817,5.282-11.817,11.82v47.278
			c0,6.529-5.296,11.818-11.823,11.818H179.776c-6.527,0-11.82-5.289-11.82-11.818v-47.278c0-6.538-5.293-11.82-11.82-11.82l0,0
			c-6.527,0-11.818,5.282-11.818,11.82v47.278c0,19.582,15.876,35.458,35.458,35.458h212.749c19.585,0,35.459-15.876,35.459-35.458
			v-47.278C427.984,422.226,422.692,416.943,416.165,416.943z"/>
		<path fill="#FCBDFF" d="M206.877,387.846l54.205,54.214c13.866,13.792,36.271,13.792,50.14,0l54.204-54.207
			c4.696-4.537,4.822-12.011,0.287-16.71c-4.536-4.698-12.015-4.823-16.714-0.287c-0.099,0.088-0.19,0.185-0.287,0.287
			l-50.741,50.713V239.65c0-6.538-5.294-11.82-11.82-11.82s-11.818,5.282-11.818,11.82v182.221l-50.741-50.744
			c-4.537-4.698-12.016-4.824-16.714-0.287s-4.824,12.021-0.288,16.716C206.682,387.646,206.779,387.749,206.877,387.846
			L206.877,387.846z"/>
	</g>
	<g opacity="0.5">
		<g>
			<path fill="#FCBDFF" d="M357.233,161.251v100.643c-0.04,32.622-26.479,59.061-59.098,59.097h-118.2
				c-32.624-0.036-59.063-26.475-59.096-59.097V96.421c0.034-32.622,26.473-59.06,59.096-59.099H233.3
				c21.952-0.058,43.022,8.665,58.51,24.231l41.177,41.199C348.557,118.235,357.289,139.295,357.233,161.251z"/>
		</g>
	</g>
	<g>
		<g>
			<path fill="#EC6BF7" d="M319.41,123.428v100.639c-0.041,32.626-26.481,59.064-59.099,59.103H142.115
				c-32.626-0.038-59.064-26.477-59.098-59.103V58.598C83.05,25.969,109.489-0.47,142.115-0.5h53.363
				c21.954-0.06,43.024,8.658,58.51,24.225l41.178,41.203C310.734,80.405,319.466,101.474,319.41,123.428z M237.271,40.44
				c-3.719-3.605-7.894-6.707-12.419-9.222v51.011c0,6.533,5.293,11.82,11.82,11.82h51.016c-2.524-4.521-5.624-8.696-9.235-12.406
				L237.271,40.44z M295.772,123.428c0-1.949-0.382-3.822-0.562-5.74h-58.539c-19.586,0-35.458-15.868-35.458-35.458V23.694
				c-1.916-0.182-3.798-0.555-5.736-0.555h-53.363c-19.588,0-35.46,15.867-35.46,35.458v165.469c0,19.588,15.872,35.46,35.46,35.46
				h118.197c19.582,0,35.46-15.872,35.46-35.46V123.428z"/>
		</g>
		<path fill="#950099" d="M260.312,164.965c0,6.531-5.294,11.82-11.82,11.82h-94.559c-6.526,0-11.818-5.289-11.818-11.82
			c0-6.522,5.292-11.818,11.818-11.818h94.559C255.018,153.147,260.312,158.443,260.312,164.965z"/>
		<path fill="#950099" d="M213.033,200.428h-59.101c-6.526,0-11.818,5.293-11.818,11.82c0,6.526,5.292,11.818,11.818,11.818h59.101
			c6.529,0,11.818-5.292,11.818-11.818C224.851,205.722,219.562,200.428,213.033,200.428z"/>
	</g>
	<g>
		<path fill="#002B96" d="M378.344,379.113L378.344,379.113c-6.526,0-11.822,5.283-11.822,11.82v47.278
			c0,6.529-5.291,11.818-11.817,11.818H141.953c-6.526,0-11.82-5.289-11.82-11.818v-47.278c0-6.537-5.292-11.82-11.818-11.82l0,0
			c-6.526,0-11.82,5.283-11.82,11.82v47.278c0,19.582,15.876,35.458,35.458,35.458h212.751c19.579,0,35.458-15.876,35.458-35.458
			v-47.278C390.162,384.396,384.871,379.113,378.344,379.113z"/>
		<path fill="#950099" d="M169.054,350.016l54.205,54.214c13.868,13.792,36.273,13.792,50.14,0l54.202-54.207
			c4.698-4.536,4.824-12.011,0.29-16.709c-4.535-4.698-12.016-4.824-16.714-0.288c-0.097,0.088-0.191,0.185-0.288,0.288
			l-50.741,50.712V201.821c0-6.538-5.292-11.82-11.818-11.82c-6.527,0-11.82,5.282-11.82,11.82v182.22l-50.741-50.743
			c-4.535-4.699-12.016-4.824-16.714-0.288c-4.698,4.537-4.824,12.021-0.287,16.717
			C168.859,349.816,168.958,349.919,169.054,350.016L169.054,350.016z"/>
	</g>
</g>
</svg>
