<?xml version="1.0" encoding="utf-8"?>
<!-- Generator: Adobe Illustrator 13.0.0, SVG Export Plug-In . SVG Version: 6.00 Build 14948)  -->
<!DOCTYPE svg PUBLIC "-//W3C//DTD SVG 1.1//EN" "http://www.w3.org/Graphics/SVG/1.1/DTD/svg11.dtd">
<svg version="1.1" id="Layer_1" xmlns="http://www.w3.org/2000/svg" xmlns:xlink="http://www.w3.org/1999/xlink" x="0px" y="0px"
	 width="512px" height="512px" viewBox="0 0 512 512" enable-background="new 0 0 512 512" xml:space="preserve">
<g>
	<path d="M447.5,212.835h-64c-23.56,0-42.67,19.1-42.67,42.665c0,23.56-19.1,42.665-42.66,42.665h-85.337
		c-23.563,0-42.665-19.105-42.665-42.665c0-23.565-19.105-42.665-42.667-42.665h-64c-35.342,0-64,28.646-64,64v85.33
		c0.072,58.875,47.783,106.605,106.667,106.67H404.83c58.89-0.064,106.6-47.795,106.67-106.67v-85.33
		C511.5,241.48,482.845,212.835,447.5,212.835z M468.83,362.165c0,35.355-28.65,64-64,64H106.168c-35.345,0-64-28.645-64-64v-85.33
		c0-11.795,9.553-21.335,21.333-21.335h64c0,47.125,38.208,85.335,85.333,85.335h85.337c47.12,0,85.33-38.21,85.33-85.335h64
		c11.78,0,21.33,9.54,21.33,21.335V362.165z"/>
	<path d="M63.5,170.165h384c11.78,0,21.33-9.54,21.33-21.33c0-11.795-9.55-21.335-21.33-21.335h-384
		c-11.78,0-21.333,9.54-21.333,21.335C42.168,160.625,51.72,170.165,63.5,170.165z"/>
	<path d="M63.5,84.835h384c11.78,0,21.33-9.545,21.33-21.335s-9.55-21.335-21.33-21.335h-384c-11.78,0-21.333,9.545-21.333,21.335
		S51.72,84.835,63.5,84.835z"/>
</g>
</svg>
