<?xml version="1.0" encoding="utf-8"?>
<!-- Generator: Adobe Illustrator 13.0.0, SVG Export Plug-In . SVG Version: 6.00 Build 14948)  -->
<!DOCTYPE svg PUBLIC "-//W3C//DTD SVG 1.1//EN" "http://www.w3.org/Graphics/SVG/1.1/DTD/svg11.dtd">
<svg version="1.1" id="Layer_1" xmlns="http://www.w3.org/2000/svg" xmlns:xlink="http://www.w3.org/1999/xlink" x="0px" y="0px"
	 width="512px" height="512px" viewBox="0 0 512 512" enable-background="new 0 0 512 512" xml:space="preserve">
<g>
	<path d="M340.84,170.16c-8.34-8.32-21.84-8.32-30.18,0l-55.16,55.18l-55.16-55.18c-8.48-8.18-21.985-7.94-30.175,0.53
		c-7.975,8.27-7.975,21.37,0,29.65l55.175,55.16l-55.175,55.16c-8.185,8.479-7.945,21.979,0.525,30.18c8.27,7.97,21.37,7.97,29.65,0
		l55.16-55.18l55.16,55.18c8.479,8.18,21.979,7.94,30.18-0.53c7.98-8.27,7.98-21.369,0-29.649l-55.18-55.16l55.18-55.16
		C349.16,192,349.16,178.5,340.84,170.16z"/>
	<path d="M255.5-0.5c-141.385,0-256,114.62-256,256s114.615,256,256,256c141.38,0,256-114.62,256-256
		C511.34,114.18,396.821-0.345,255.5-0.5z M255.5,468.84c-117.825,0-213.335-95.52-213.335-213.34
		c0-117.82,95.51-213.335,213.335-213.335c117.82,0,213.34,95.515,213.34,213.335C468.71,373.27,373.27,468.71,255.5,468.84z"/>
</g>
</svg>
