<?xml version="1.0" encoding="utf-8"?>
<!-- Generator: Adobe Illustrator 13.0.0, SVG Export Plug-In . SVG Version: 6.00 Build 14948)  -->
<!DOCTYPE svg PUBLIC "-//W3C//DTD SVG 1.1//EN" "http://www.w3.org/Graphics/SVG/1.1/DTD/svg11.dtd">
<svg version="1.1" id="Layer_1" xmlns="http://www.w3.org/2000/svg" xmlns:xlink="http://www.w3.org/1999/xlink" x="0px" y="0px"
	 width="512px" height="512px" viewBox="0 0 512 512" enable-background="new 0 0 512 512" xml:space="preserve">
<g>
	<g>
		<path d="M255.5-0.5c-141.38,0-256,114.63-256,256c0,141.38,114.62,256,256,256s256-114.62,256-256
			C511.33,114.19,396.83-0.35,255.5-0.5z M255.5,468.83c-117.83,0-213.33-95.521-213.33-213.33c0-117.81,95.5-213.33,213.33-213.33
			s213.33,95.52,213.33,213.33C468.71,373.27,373.27,468.71,255.5,468.83z M270.79,107.52c-46.37-8.46-90.79,22.27-99.25,68.65
			c-0.92,5.06-1.37,10.18-1.37,15.33c0,11.79,9.54,21.33,21.33,21.33s21.33-9.54,21.33-21.33c-0.02-23.56,19.07-42.69,42.63-42.71
			c2.66,0,5.33,0.25,7.96,0.75c17.25,3.34,30.73,16.79,34.12,34.02c3.46,18.15-5.16,36.44-21.33,45.34
			c-26.59,15.39-42.69,44.041-42.04,74.75v15.85c0,11.79,9.54,21.33,21.33,21.33s21.33-9.54,21.33-21.33v-15.85
			c-0.54-15.11,7.02-29.36,19.84-37.381c41.311-22.689,56.41-74.56,33.71-115.87C318,127.85,296.1,112.08,270.79,107.52z
			 M255.5,362.17c-11.79,0-21.33,9.54-21.33,21.33s9.54,21.33,21.33,21.33s21.33-9.54,21.33-21.33S267.29,362.17,255.5,362.17z"/>
	</g>
</g>
</svg>
