<?xml version="1.0" encoding="utf-8"?>
<!-- Generator: Adobe Illustrator 13.0.0, SVG Export Plug-In . SVG Version: 6.00 Build 14948)  -->
<!DOCTYPE svg PUBLIC "-//W3C//DTD SVG 1.1//EN" "http://www.w3.org/Graphics/SVG/1.1/DTD/svg11.dtd">
<svg version="1.1" id="Layer_1" xmlns="http://www.w3.org/2000/svg" xmlns:xlink="http://www.w3.org/1999/xlink" x="0px" y="0px"
	 width="512px" height="512px" viewBox="0 0 512 512" enable-background="new 0 0 512 512" xml:space="preserve">
<path d="M468.865,323.436V170.161c-0.067-58.89-47.788-106.603-106.678-106.686h-213.35C89.951,63.558,42.23,111.271,42.155,170.161
	v153.274C8.896,335.145-8.574,371.607,3.146,404.874c9.009,25.585,33.218,42.695,60.356,42.65h384.022
	c35.27,0.06,63.915-28.481,63.976-63.729C511.56,356.65,494.45,332.438,468.865,323.436z M148.837,106.163h213.35
	c35.344,0,64.005,28.646,64.005,63.998v149.337h-88.563c-12.557,0-24.483,5.521-32.599,15.106l-5.266,6.233h-88.523l-5.25-6.233
	c-8.116-9.586-20.039-15.106-32.591-15.106H84.835V170.161C84.835,134.81,113.492,106.163,148.837,106.163z M447.525,404.858H63.503
	c-11.795,0-21.348-9.563-21.348-21.332c0-11.792,9.552-21.355,21.348-21.355h109.915l5.243,6.226
	c8.112,9.586,20.031,15.13,32.58,15.13h88.523c12.557,0,24.482-5.521,32.591-15.13l5.273-6.226h109.896
	c11.791,0,21.34,9.563,21.34,21.355C468.865,395.295,459.316,404.858,447.525,404.858z"/>
</svg>
