<?xml version="1.0" encoding="utf-8"?>
<!-- Generator: Adobe Illustrator 13.0.0, SVG Export Plug-In . SVG Version: 6.00 Build 14948)  -->
<!DOCTYPE svg PUBLIC "-//W3C//DTD SVG 1.1//EN" "http://www.w3.org/Graphics/SVG/1.1/DTD/svg11.dtd">
<svg version="1.1" id="Layer_1" xmlns="http://www.w3.org/2000/svg" xmlns:xlink="http://www.w3.org/1999/xlink" x="0px" y="0px"
	 width="512px" height="512px" viewBox="0 0 512 512" enable-background="new 0 0 512 512" xml:space="preserve">
<path d="M485.24,191.682c-20.244-23.313-49.608-36.709-80.48-36.709h-85.083l7.165-43.54c5.837-35.287-18.041-68.627-53.345-74.481
	c-28.164-4.646-56.07,9.694-68.687,35.312l-40.823,82.708h-57.845C47.27,155.042-0.427,202.747-0.499,261.62v106.647
	c0.073,58.881,47.77,106.587,106.643,106.646h283.686c53.045-0.206,97.948-39.203,105.593-91.708l15.051-106.646
	C514.749,245.953,505.553,214.978,485.24,191.682z M42.154,368.268V261.62c0-35.329,28.648-63.973,63.99-63.973h42.657v234.618
	h-42.657C70.802,432.266,42.154,403.622,42.154,368.268z M468.124,270.56l-15.051,106.647c-4.551,31.48-31.446,54.896-63.244,55.059
	H191.466V191.957c2.014-1.749,3.668-3.857,4.902-6.231l46.694-94.58c6.103-11.022,20.004-14.999,31.027-8.896
	c2.125,1.166,4.045,2.683,5.708,4.474c4.234,4.937,6.051,11.502,4.963,17.921l-11.263,68.25
	c-1.877,11.622,6.009,22.584,17.639,24.461c1.141,0.18,2.271,0.292,3.42,0.292H404.76c35.346-0.026,63.99,28.618,63.998,63.973
	C468.758,264.603,468.553,267.603,468.124,270.56z"/>
</svg>
