<?xml version="1.0" encoding="utf-8"?>
<!-- Generator: Adobe Illustrator 13.0.0, SVG Export Plug-In . SVG Version: 6.00 Build 14948)  -->
<!DOCTYPE svg PUBLIC "-//W3C//DTD SVG 1.1//EN" "http://www.w3.org/Graphics/SVG/1.1/DTD/svg11.dtd">
<svg version="1.1" id="Layer_1" xmlns="http://www.w3.org/2000/svg" xmlns:xlink="http://www.w3.org/1999/xlink" x="0px" y="0px"
	 width="512px" height="512px" viewBox="0 0 512 512" enable-background="new 0 0 512 512" xml:space="preserve">
<path d="M158.636,511.5C70.261,511.431-1.322,439.75-1.273,351.389C-1.218,279.833,46.331,217,115.199,197.542
	c27.007-7.75,55.59-8.097,82.792-1.042L366.698,27.861C384.782,9.625,409.407-0.583,435.088-0.5l0,0
	c41.652,0.028,75.402,33.792,75.43,75.444c0.07,25.667-10.139,50.292-28.333,68.417l-14.333,14.333
	c-8.028,7.958-18.861,12.431-30.167,12.472h-33.833V191.5c0,23.569-19.111,42.667-42.667,42.667h-21.333V268
	c0.027,11.319-4.473,22.194-12.5,30.167l-13.861,13.86c7.098,27.181,6.75,55.765-1,82.765
	c-17.861,62.93-72.111,108.749-137.139,115.833C169.803,511.181,164.22,511.5,158.636,511.5z M158.636,234.167
	c-64.805-0.055-117.389,52.417-117.451,117.208c-0.063,64.806,52.417,117.389,117.222,117.458
	c52.59,0.042,98.799-34.917,113.049-85.541c6.659-23.125,5.916-47.75-2.125-70.417c-2.688-7.708-0.709-16.292,5.076-22.083
	L297.185,268v-33.833c0-23.555,19.111-42.667,42.667-42.667h21.333v-21.333c0-23.555,19.111-42.667,42.667-42.667h33.833
	l14.333-14.333c10.167-10.125,15.875-23.889,15.834-38.223c-0.014-18.083-14.667-32.75-32.75-32.777
	c-14.361-0.042-28.125,5.667-38.236,15.861L219.129,235.736c-5.792,5.764-14.375,7.722-22.097,5.042
	c-12.375-4.361-25.396-6.583-38.514-6.611H158.636z M105.185,383.5c0,11.764,9.556,21.333,21.333,21.333
	c11.785,0,21.333-9.569,21.333-21.333c0-11.792-9.548-21.333-21.333-21.333C114.741,362.167,105.185,371.708,105.185,383.5z"/>
</svg>
