<?xml version="1.0" encoding="utf-8"?>
<!-- Generator: Adobe Illustrator 13.0.0, SVG Export Plug-In . SVG Version: 6.00 Build 14948)  -->
<!DOCTYPE svg PUBLIC "-//W3C//DTD SVG 1.1//EN" "http://www.w3.org/Graphics/SVG/1.1/DTD/svg11.dtd">
<svg version="1.1" id="Layer_1" xmlns="http://www.w3.org/2000/svg" xmlns:xlink="http://www.w3.org/1999/xlink" x="0px" y="0px"
	 width="512px" height="512px" viewBox="0 0 512 512" enable-background="new 0 0 512 512" xml:space="preserve">
<path d="M490.177,475.081c-11.785,0-21.323-9.564-21.323-21.341c-0.052-70.668-57.348-127.922-128.008-127.999H216.489v33.829
	c-0.017,23.57-19.127,42.672-42.689,42.672c-11.313,0-22.146-4.503-30.141-12.497L18.233,264.319
	c-24.977-24.977-24.977-65.505,0-90.482L143.658,48.412c16.666-16.666,43.667-16.648,60.333,0
	c8.002,8.003,12.497,18.853,12.497,30.167v33.837h103.034c105.981,0.103,191.874,86.004,191.978,191.986V453.74
	C511.5,465.517,501.962,475.081,490.177,475.081z M173.825,78.578L48.399,204.004c-8.329,8.312-8.329,21.838,0,30.149
	L173.825,359.57v-55.169c0-11.769,9.538-21.332,21.332-21.332h145.689c49.028,0,95.654,21.083,128.008,57.896v-36.564
	c-0.103-82.419-66.903-149.236-149.331-149.314H195.156c-11.793,0-21.332-9.563-21.332-21.34V78.578z"/>
</svg>
