<?xml version="1.0" encoding="utf-8"?>
<!-- Generator: Adobe Illustrator 13.0.0, SVG Export Plug-In . SVG Version: 6.00 Build 14948)  -->
<!DOCTYPE svg PUBLIC "-//W3C//DTD SVG 1.1//EN" "http://www.w3.org/Graphics/SVG/1.1/DTD/svg11.dtd">
<svg version="1.1" id="Layer_1" xmlns="http://www.w3.org/2000/svg" xmlns:xlink="http://www.w3.org/1999/xlink" x="0px" y="0px"
	 width="512px" height="512px" viewBox="0 0 512 512" enable-background="new 0 0 512 512" xml:space="preserve">
<g>
	<path d="M205.372,255.5c70.676,0,127.995-57.308,127.995-127.995S276.048-0.5,205.372-0.5c-70.692,0-128,57.318-128,128.005
		C77.443,198.17,134.702,255.435,205.372,255.5z M205.372,42.172c47.125,0,85.322,38.209,85.322,85.333
		s-38.198,85.333-85.322,85.333c-47.13,0-85.333-38.209-85.333-85.333S158.242,42.172,205.372,42.172z M205.372,298.161
		C99.38,298.291,13.484,384.166,13.37,490.169c0,11.787,9.555,21.331,21.336,21.331s21.331-9.544,21.331-21.331
		c0-82.483,66.852-149.336,149.336-149.336c82.474,0,149.325,66.853,149.325,149.336c0,11.787,9.555,21.331,21.342,21.331
		c11.775,0,21.33-9.544,21.33-21.331C397.25,384.166,311.365,298.291,205.372,298.161z M305.623,298.161
		c-2.416,0-4.767,0.282-7.161,0.368c28.242,13.77,53.051,33.41,72.637,57.568c49.605,24.277,83.86,75.106,83.86,134.071
		c0,11.787,9.555,21.331,21.33,21.331c11.787,0,21.342-9.544,21.342-21.331C497.512,384.166,411.615,298.291,305.623,298.161z
		 M330.301,45.823c35.089,10.595,60.666,43.138,60.666,81.683c0,38.556-25.588,71.109-60.709,81.683
		c-11.722,17.896-27.202,33.042-45.294,44.481c6.749,1.094,13.617,1.82,20.659,1.831c70.697,0,128.005-57.308,128.005-127.995
		S376.321-0.5,305.623-0.5c-7.042,0-13.91,0.715-20.648,1.82C303.088,12.76,318.569,27.916,330.301,45.823z"/>
</g>
</svg>
