<?xml version="1.0" encoding="utf-8"?>
<!-- Generator: Adobe Illustrator 13.0.0, SVG Export Plug-In . SVG Version: 6.00 Build 14948)  -->
<!DOCTYPE svg PUBLIC "-//W3C//DTD SVG 1.1//EN" "http://www.w3.org/Graphics/SVG/1.1/DTD/svg11.dtd">
<svg version="1.1" id="Layer_1" xmlns="http://www.w3.org/2000/svg" xmlns:xlink="http://www.w3.org/1999/xlink" x="0px" y="0px"
	 width="512px" height="512px" viewBox="0 0 512 512" enable-background="new 0 0 512 512" xml:space="preserve">
<path d="M473.111,45.65C448.825,25.348,416.77,16.9,385.64,22.588L304.095,37.4c-18.825,3.448-35.935,13.135-48.595,27.49
	c-12.685-14.375-29.85-24.063-48.73-27.49l-81.405-14.813C67.42,11.983,11.845,50.368,1.24,108.315
	c-1.155,6.335-1.74,12.75-1.74,19.19v230.25c0,51.55,36.865,95.72,87.575,104.935l134.105,24.385c22.7,4.13,45.95,4.13,68.645,0
	l134.21-24.385c50.665-9.27,87.475-53.425,87.465-104.935v-230.25C511.52,95.868,497.45,65.858,473.111,45.65z M234.17,445.976
	c-1.79-0.26-3.585-0.555-5.375-0.88L94.71,420.735c-30.425-5.53-52.54-32.045-52.54-62.979v-230.25c0-35.345,28.655-64,64-64
	c3.865,0.01,7.715,0.363,11.52,1.05l81.49,14.927c20.23,3.708,34.95,21.313,34.99,41.875V445.976z M468.835,357.756
	c0,30.935-22.115,57.449-52.54,62.979l-134.085,24.36c-1.79,0.325-3.58,0.62-5.375,0.88V121.358
	c0-20.615,14.74-38.292,35.035-41.978l81.51-14.94c34.78-6.322,68.09,16.74,74.425,51.513c0.686,3.813,1.03,7.677,1.03,11.552
	V357.756z"/>
</svg>
