<?xml version="1.0" encoding="utf-8"?>
<!-- Generator: Adobe Illustrator 13.0.0, SVG Export Plug-In . SVG Version: 6.00 Build 14948)  -->
<!DOCTYPE svg PUBLIC "-//W3C//DTD SVG 1.1//EN" "http://www.w3.org/Graphics/SVG/1.1/DTD/svg11.dtd">
<svg version="1.1" id="Layer_1" xmlns="http://www.w3.org/2000/svg" xmlns:xlink="http://www.w3.org/1999/xlink" x="0px" y="0px"
	 width="512px" height="512px" viewBox="0 0 512 512" enable-background="new 0 0 512 512" xml:space="preserve">
<path d="M464.001,433.901c27.205-26.905,43.85-62.69,46.91-100.83c6.63-79.721-43.301-153.251-119.851-176.481
	c-7.42-2.315-13.19-8.19-15.375-15.648C348.34,51.285,253.485,0.774,163.829,28.129c-24.958,7.603-47.823,20.875-66.823,38.76
	l-61.021-61c-8.47-8.188-21.97-7.948-30.147,0.52c-7.978,8.26-7.978,21.365,0,29.625l469.073,469.078
	c8.479,8.185,21.97,7.944,30.16-0.521c7.979-8.26,7.979-21.37,0-29.63L464.001,433.901z M193.622,64.995
	c62.508-9.49,122.563,28.175,141.228,88.583c6.41,20.893,22.721,37.273,43.586,43.763c57.405,17.445,94.835,72.611,89.835,132.406
	c-2.2,27.976-14.545,54.195-34.689,73.726L127.142,97.035C145.632,80.005,168.777,68.847,193.622,64.995z M361.91,465.047
	c1.24,11.695-7.215,22.195-18.91,23.46c-9.36,1.01-18.75,1.5-28.17,1.485H120.809C62.224,488.972,12.276,447.276,0.808,389.831
	c-7.427-49.17,17.27-97.61,61.428-120.471c-17.053-31.14-23.48-66.99-18.293-102.115c1.635-11.657,12.417-19.792,24.083-18.157
	c11.657,1.645,19.792,12.427,18.157,24.083c-3.792,26.2,0.678,52.92,12.79,76.45c11.105,20.56,3.585,46.241-16.862,57.56
	c-28.125,14.575-43.835,45.45-39.063,76.761c8.175,36.54,40.28,62.75,77.718,63.46H314.79c7.88,0,15.77-0.42,23.6-1.26
	c11.7-1.2,22.19,7.23,23.546,18.905H361.91z"/>
</svg>
