<?xml version="1.0" encoding="utf-8"?>
<!-- Generator: Adobe Illustrator 13.0.0, SVG Export Plug-In . SVG Version: 6.00 Build 14948)  -->
<!DOCTYPE svg PUBLIC "-//W3C//DTD SVG 1.1//EN" "http://www.w3.org/Graphics/SVG/1.1/DTD/svg11.dtd">
<svg version="1.1" id="Layer_1" xmlns="http://www.w3.org/2000/svg" xmlns:xlink="http://www.w3.org/1999/xlink" x="0px" y="0px"
	 width="512px" height="512px" viewBox="0 0 512 512" enable-background="new 0 0 512 512" xml:space="preserve">
<g id="Layer_2">
	<g id="Avatar">
		<path d="M494.51,430.81l-13.109-62.159c-6.881-33.061-27.061-61.841-55.811-79.561l-78.74-48.745
			c12.23-16.32,19.83-35.635,22.011-55.91l6.25-58.88c6.67-62.59-38.65-118.74-101.24-125.415c-3.99-0.42-8-0.64-12.01-0.64H249.26
			c-62.94-0.015-113.98,51-114,113.945c0,4.045,0.22,8.085,0.64,12.11l6.35,58.88c2.18,20.275,9.79,39.59,22.02,55.91L85.42,289.09
			c-28.74,17.72-48.93,46.5-55.81,79.561l-13.1,62.159c-7.64,36.131,15.46,71.61,51.59,79.25c4.55,0.96,9.19,1.44,13.84,1.44h347.14
			c36.93,0,66.87-29.92,66.87-66.86C495.95,440,495.47,435.36,494.51,430.81z M202.57,71.18c11.92-13.19,28.91-20.645,46.69-20.48
			h12.601c34.609-0.03,62.689,28,62.72,62.61c0.01,2.28-0.12,4.555-0.36,6.82l-6.25,58.775c-3.7,34.47-34.64,59.415-69.11,55.715
			c-29.37-3.15-52.56-26.35-55.71-55.715l-6.25-58.775C184.72,102.305,190.44,84.42,202.57,71.18z M441.26,454.16
			c-2.92,3.74-7.43,5.899-12.18,5.83H81.94c-4.75,0.069-9.26-2.09-12.19-5.83c-3.01-3.54-4.28-8.23-3.48-12.8l13.11-62.16
			c4.19-19.34,16.1-36.141,32.97-46.49l93.49-57.96c31.35,15.29,67.99,15.29,99.33,0l93.49,57.96
			c16.76,10.41,28.55,27.2,32.67,46.49l13.11,62.16c0.979,4.62-0.181,9.439-3.181,13.1V454.16z"/>
		<path d="M301.59,368.14h51.2c14.14,0,25.6,11.46,25.6,25.601l0,0c0,14.14-11.46,25.6-25.6,25.6h-51.2
			c-14.14,0-25.6-11.46-25.6-25.6l0,0C275.99,379.6,287.45,368.14,301.59,368.14z"/>
	</g>
</g>
</svg>
