<?xml version="1.0" encoding="utf-8"?>
<!-- Generator: Adobe Illustrator 13.0.0, SVG Export Plug-In . SVG Version: 6.00 Build 14948)  -->
<!DOCTYPE svg PUBLIC "-//W3C//DTD SVG 1.1//EN" "http://www.w3.org/Graphics/SVG/1.1/DTD/svg11.dtd">
<svg version="1.1" id="Layer_1" xmlns="http://www.w3.org/2000/svg" xmlns:xlink="http://www.w3.org/1999/xlink" x="0px" y="0px"
	 width="512px" height="512px" viewBox="0 0 512 512" enable-background="new 0 0 512 512" xml:space="preserve">
<path d="M485.167,92.479c-15.938-6.646-34.313-2.979-46.5,9.271L383.5,156.917l-97.833-97.833C269,42.417,242,42.417,225.334,59.083
	L127.5,156.917L72.334,101.75c-16.667-16.667-43.677-16.667-60.344,0C4,109.75-0.5,120.583-0.5,131.917V357.75
	c0.073,58.875,47.781,106.583,106.667,106.667h298.667c58.875-0.084,106.584-47.792,106.667-106.667V131.917
	C511.5,114.646,501.125,99.083,485.167,92.479z M468.833,357.75c0,35.333-28.666,64-64,64H106.167c-35.344,0-64-28.667-64-64
	V131.917l70.25,70.25c8.333,8.313,21.833,8.313,30.167,0L255.5,89.25l112.917,112.917c8.333,8.313,21.833,8.313,30.166,0
	l70.25-70.25V357.75z"/>
</svg>
