<?xml version="1.0" encoding="utf-8"?>
<!-- Generator: Adobe Illustrator 13.0.0, SVG Export Plug-In . SVG Version: 6.00 Build 14948)  -->
<!DOCTYPE svg PUBLIC "-//W3C//DTD SVG 1.1//EN" "http://www.w3.org/Graphics/SVG/1.1/DTD/svg11.dtd">
<svg version="1.1" id="Layer_1" xmlns="http://www.w3.org/2000/svg" xmlns:xlink="http://www.w3.org/1999/xlink" x="0px" y="0px"
	 width="512px" height="512px" viewBox="0 0 512 512" enable-background="new 0 0 512 512" xml:space="preserve">
<g>
	<path d="M479.146,231.21L255.48,365.414L31.809,231.21c-10.103-6.072-23.208-2.793-29.25,7.31
		c-6.082,10.104-2.789,23.207,7.295,29.27l0,0l234.67,140.79c6.746,4.062,15.205,4.062,21.95,0l234.67-140.79
		c10.084-6.063,13.382-19.166,7.311-29.27c-6.063-10.103-19.167-13.382-29.27-7.31H479.146z"/>
	<path d="M479.146,328.646L255.48,462.85L31.809,328.646c-10.103-6.062-23.208-2.793-29.25,7.31
		c-6.082,10.104-2.789,23.208,7.295,29.27l234.67,140.791c6.746,4.07,15.205,4.07,21.95,0l234.67-140.791
		c10.084-6.062,13.382-19.166,7.311-29.27c-6.063-10.103-19.167-13.371-29.27-7.31H479.146z"/>
	<path d="M255.48,312.224c-11.5-0.02-22.791-3.14-32.667-9.083L9.855,175.356c-10.108-6.072-13.377-19.196-7.295-29.279
		c1.792-3.001,4.294-5.498,7.295-7.29L222.813,10.972c20.107-12.054,45.226-12.054,65.333,0l212.979,127.815
		c10.104,6.062,13.353,19.166,7.271,29.269c-1.793,3.001-4.289,5.507-7.271,7.3L288.147,303.141
		C278.272,309.084,266.98,312.204,255.48,312.224z M62.312,157.062l182.5,109.5c6.587,3.933,14.769,3.933,21.335,0l182.521-109.5
		L266.148,47.581c-6.566-3.942-14.748-3.942-21.335,0l0,0L62.312,157.062z"/>
</g>
</svg>
