<?xml version="1.0" encoding="utf-8"?>
<!-- Generator: Adobe Illustrator 13.0.0, SVG Export Plug-In . SVG Version: 6.00 Build 14948)  -->
<!DOCTYPE svg PUBLIC "-//W3C//DTD SVG 1.1//EN" "http://www.w3.org/Graphics/SVG/1.1/DTD/svg11.dtd">
<svg version="1.1" id="Layer_1" xmlns="http://www.w3.org/2000/svg" xmlns:xlink="http://www.w3.org/1999/xlink" x="0px" y="0px"
	 width="512px" height="512px" viewBox="0 0 512 512" enable-background="new 0 0 512 512" xml:space="preserve">
<path d="M505.522,475.384l-127.249-127.22c74.639-91.298,61.139-225.81-30.138-300.434C256.858-26.921,122.36-13.421,47.722,77.855
	c-74.638,91.304-61.138,225.809,30.138,300.433c78.624,64.277,191.657,64.277,270.274,0l127.248,127.248
	c8.472,8.153,21.972,7.931,30.139-0.541C513.493,496.745,513.493,483.634,505.522,475.384z M213.345,383.886
	c-94.186,0-170.525-76.347-170.525-170.546c0-94.179,76.339-170.525,170.525-170.525c94.179,0,170.539,76.346,170.539,170.525
	C383.773,307.498,307.469,383.761,213.345,383.886z"/>
</svg>
