<?xml version="1.0" encoding="utf-8"?>
<!-- Generator: Adobe Illustrator 13.0.0, SVG Export Plug-In . SVG Version: 6.00 Build 14948)  -->
<!DOCTYPE svg PUBLIC "-//W3C//DTD SVG 1.1//EN" "http://www.w3.org/Graphics/SVG/1.1/DTD/svg11.dtd">
<svg version="1.1" id="Layer_1" xmlns="http://www.w3.org/2000/svg" xmlns:xlink="http://www.w3.org/1999/xlink" x="0px" y="0px"
	 width="512px" height="512px" viewBox="0 0 512 512" enable-background="new 0 0 512 512" xml:space="preserve">
<path d="M298.178,511.5c-4.61,0-9.097-1.5-12.791-4.277l-85.333-64c-5.368-4.015-8.535-10.348-8.535-17.056v-119.89L41.845,137.875
	C11.366,103.5,14.532,50.917,48.914,20.444C64.123,6.958,83.741-0.5,104.053-0.5h302.945c45.944,0.042,83.139,37.333,83.097,83.292
	c-0.042,20.333-7.486,39.917-20.958,55.125L319.512,306.277v183.89C319.512,501.958,309.97,511.5,298.178,511.5z M234.185,415.5
	l42.66,32V298.167c0-5.209,1.931-10.25,5.403-14.167l155.055-174.444c14.834-16.764,13.278-42.389-3.5-57.222
	c-7.389-6.542-16.944-10.167-26.805-10.167H104.053c-22.389,0.042-40.5,18.208-40.472,40.583c0.014,9.875,3.625,19.389,10.16,26.792
	L228.81,284c3.472,3.917,5.375,8.958,5.375,14.167V415.5z"/>
</svg>
