<?xml version="1.0" encoding="utf-8"?>
<!-- Generator: Adobe Illustrator 13.0.0, SVG Export Plug-In . SVG Version: 6.00 Build 14948)  -->
<!DOCTYPE svg PUBLIC "-//W3C//DTD SVG 1.1//EN" "http://www.w3.org/Graphics/SVG/1.1/DTD/svg11.dtd">
<svg version="1.1" id="Layer_1" xmlns="http://www.w3.org/2000/svg" xmlns:xlink="http://www.w3.org/1999/xlink" x="0px" y="0px"
	 width="512px" height="512px" viewBox="0 0 512 512" enable-background="new 0 0 512 512" xml:space="preserve">
<g>
	<g>
		<path d="M495.854,200.457C462.783,146.581,387.545,56.203,255.5,56.203c-132.045,0-207.283,90.377-240.354,144.254
			c-20.862,33.73-20.862,76.349,0,110.086C48.217,364.42,123.455,454.797,255.5,454.797c132.045,0,207.283-90.377,240.354-144.254
			C516.716,276.806,516.716,234.187,495.854,200.457z M459.506,288.209c-28.404,46.182-92.697,123.92-204.006,123.92
			c-111.295,0-175.588-77.738-204.005-123.92c-12.375-20.042-12.375-45.376,0-65.418c28.417-46.189,92.71-123.92,204.005-123.92
			c111.309,0,175.602,77.627,204.006,123.92C471.881,242.833,471.881,268.167,459.506,288.209z M255.5,148.872
			c-58.876,0-106.628,47.73-106.628,106.628c0,58.891,47.751,106.628,106.628,106.628c58.891,0,106.628-47.737,106.628-106.628
			C362.059,196.644,314.363,148.935,255.5,148.872z M255.5,319.474c-35.334,0-63.974-28.64-63.974-63.974
			c0-35.334,28.64-63.981,63.974-63.981c35.334,0,63.988,28.646,63.988,63.981C319.489,290.834,290.834,319.474,255.5,319.474z"/>
	</g>
</g>
</svg>
