<?xml version="1.0" encoding="utf-8"?>
<!-- Generator: Adobe Illustrator 13.0.0, SVG Export Plug-In . SVG Version: 6.00 Build 14948)  -->
<!DOCTYPE svg PUBLIC "-//W3C//DTD SVG 1.1//EN" "http://www.w3.org/Graphics/SVG/1.1/DTD/svg11.dtd">
<svg version="1.1" id="Layer_1" xmlns="http://www.w3.org/2000/svg" xmlns:xlink="http://www.w3.org/1999/xlink" x="0px" y="0px"
	 width="512px" height="512px" viewBox="0 0 512 512" enable-background="new 0 0 512 512" xml:space="preserve">
<path d="M404.833-0.5H106.167C47.278-0.444-0.43,47.292-0.5,106.167v298.667C-0.43,463.708,47.278,511.444,106.167,511.5h298.667
	c58.89-0.056,106.598-47.792,106.667-106.667V106.167C511.431,47.292,463.723-0.444,404.833-0.5z M468.833,404.833
	c0,35.361-28.652,64-64,64H106.167c-35.347,0-64-28.639-64-64V106.167c0-35.361,28.653-64,64-64h298.667c35.348,0,64,28.639,64,64
	V404.833z"/>
</svg>
