<?xml version="1.0" encoding="utf-8"?>
<!-- Generator: Adobe Illustrator 13.0.0, SVG Export Plug-In . SVG Version: 6.00 Build 14948)  -->
<!DOCTYPE svg PUBLIC "-//W3C//DTD SVG 1.1//EN" "http://www.w3.org/Graphics/SVG/1.1/DTD/svg11.dtd">
<svg version="1.1" id="Layer_1" xmlns="http://www.w3.org/2000/svg" xmlns:xlink="http://www.w3.org/1999/xlink" x="0px" y="0px"
	 width="512px" height="512px" viewBox="0 0 512 512" enable-background="new 0 0 512 512" xml:space="preserve">
<g>
	<path fill="#00893B" d="M404.833-0.5H106.167C47.278-0.417-0.424,47.278-0.5,106.167v298.667
		c0.076,58.89,47.778,106.584,106.667,106.667h298.667c58.89-0.083,106.584-47.777,106.667-106.667V106.167
		C511.417,47.278,463.723-0.417,404.833-0.5z"/>
	<path fill="#FFFFFF" d="M198.612,339.111L115,255.5c-8.333-8.333-21.833-8.333-30.167,0l0,0c-8.333,8.333-8.333,21.833,0,30.167
		l83.611,83.61c16.653,16.667,43.667,16.667,60.333,0h0.014l197.375-197.389c8.333-8.333,8.333-21.833,0-30.167l0,0
		c-8.334-8.333-21.834-8.333-30.167,0L198.612,339.111z"/>
</g>
</svg>
