<?xml version="1.0" encoding="utf-8"?>
<!-- Generator: Adobe Illustrator 13.0.0, SVG Export Plug-In . SVG Version: 6.00 Build 14948)  -->
<!DOCTYPE svg PUBLIC "-//W3C//DTD SVG 1.1//EN" "http://www.w3.org/Graphics/SVG/1.1/DTD/svg11.dtd">
<svg version="1.1" id="Layer_1" xmlns="http://www.w3.org/2000/svg" xmlns:xlink="http://www.w3.org/1999/xlink" x="0px" y="0px"
	 width="512px" height="512px" viewBox="0 0 512 512" enable-background="new 0 0 512 512" xml:space="preserve">
<path d="M362.167-0.5H148.834C89.945-0.431,42.237,47.278,42.167,106.167v320c0,47.125,38.208,85.333,85.333,85.333h234.667
	c58.86-0.056,106.597-47.792,106.666-106.667V106.167C468.764,47.278,421.028-0.431,362.167-0.5z M426.167,106.167v234.667h-256
	V42.167h192C397.514,42.167,426.167,70.819,426.167,106.167z M127.5,45.833v295c-14.986-0.027-29.708,3.944-42.667,11.459V106.167
	C84.834,79.056,101.917,54.875,127.5,45.833z M362.167,468.833H127.5c-23.569,0-42.667-19.11-42.667-42.666
	S103.931,383.5,127.5,383.5h298.667v21.333C426.167,440.194,397.514,468.833,362.167,468.833z"/>
</svg>
