<?xml version="1.0" encoding="utf-8"?>
<!-- Generator: Adobe Illustrator 13.0.0, SVG Export Plug-In . SVG Version: 6.00 Build 14948)  -->
<!DOCTYPE svg PUBLIC "-//W3C//DTD SVG 1.1//EN" "http://www.w3.org/Graphics/SVG/1.1/DTD/svg11.dtd">
<svg version="1.1" id="Layer_1" xmlns="http://www.w3.org/2000/svg" xmlns:xlink="http://www.w3.org/1999/xlink" x="0px" y="0px"
	 width="512px" height="512px" viewBox="0 0 512 512" enable-background="new 0 0 512 512" xml:space="preserve">
<g>
	<path d="M190.5,233.167c0-11.778,9.556-21.333,21.333-21.333h85.334c11.777,0,21.333,9.556,21.333,21.333
		s-9.556,21.333-21.333,21.333h-85.334C200.056,254.5,190.5,244.944,190.5,233.167z M510.5,382.5v21.333
		c-0.069,58.889-47.778,106.598-106.667,106.667H105.167C46.278,510.431-1.431,462.722-1.5,403.833V382.5
		c0.063-50.667,35.694-94.319,85.333-104.528V254.5c0.07-61.028,32.729-117.375,85.653-147.771
		c-0.042-0.542-0.319-1.007-0.319-1.563V83.833c0-47.125,38.208-85.333,85.333-85.333s85.333,38.208,85.333,85.333v21.333
		c0,0.556-0.277,1.021-0.319,1.563c52.931,30.396,85.583,86.743,85.653,147.771v23.472C474.792,288.181,510.444,331.833,510.5,382.5
		z M211.833,89.444c27.945-7.486,57.375-7.486,85.334,0v-5.611c0-23.563-19.104-42.667-42.667-42.667s-42.667,19.104-42.667,42.667
		V89.444z M126.5,351.25c68.729-70.694,181.736-72.292,252.444-3.556c1.194,1.167,2.389,2.348,3.556,3.556V254.5
		c0-70.688-57.306-128-128-128c-70.688,0-128,57.313-128,128V351.25z M105.167,467.833h0.556
		c-14.118-18.361-21.806-40.847-21.889-64v-81.402c-25.479,9.014-42.555,33.041-42.667,60.069v21.333
		C41.167,439.181,69.819,467.833,105.167,467.833z M318.5,467.833c28.556-0.139,53.583-19.181,61.306-46.681
		c-30.861-69.208-112-100.277-181.208-69.402c-30.903,13.777-55.618,38.5-69.41,69.402c7.729,27.5,32.75,46.542,61.313,46.681H318.5
		z M467.833,382.5c-0.111-27.028-17.194-51.056-42.666-60.069v81.402c-0.084,23.153-7.778,45.639-21.89,64h0.556
		c35.348,0,64-28.652,64-64V382.5z"/>
</g>
</svg>
