<?xml version="1.0" encoding="utf-8"?>
<!-- Generator: Adobe Illustrator 22.1.0, SVG Export Plug-In . SVG Version: 6.00 Build 0)  -->
<svg version="1.1" id="Layer_1" xmlns="http://www.w3.org/2000/svg" xmlns:xlink="http://www.w3.org/1999/xlink" x="0px" y="0px"
	 viewBox="0 0 512 512" style="enable-background:new 0 0 512 512;" xml:space="preserve">
<path d="M490.3,193.6L331.1,34.4c-41-40.9-107.4-40.9-148.5,0L23.5,193.6C11.6,205.4,5,221.4,5,238.1v206.1c0,34.8,28.2,63,63,63
	h377.8c34.8,0,63-28.2,63-63V238.1C508.9,221.4,502.2,205.4,490.3,193.6z M319.9,465.2h-126v-82.6c0-34.8,28.2-63,63-63
	c34.8,0,63,28.2,63,63V465.2z M466.8,444.2c0,11.6-9.4,21-21,21h-84v-82.6c0-58-47-105-105-105s-105,47-105,105v82.6H68
	c-11.6,0-21-9.4-21-21V238.1c0-5.6,2.2-10.9,6.1-14.8L212.4,64.1c24.6-24.5,64.5-24.5,89.1,0l159.2,159.2c3.9,3.9,6.1,9.2,6.1,14.8
	V444.2z"/>
</svg>
