<?xml version="1.0" encoding="utf-8"?>
<!-- Generator: Adobe Illustrator 13.0.0, SVG Export Plug-In . SVG Version: 6.00 Build 14948)  -->
<!DOCTYPE svg PUBLIC "-//W3C//DTD SVG 1.1//EN" "http://www.w3.org/Graphics/SVG/1.1/DTD/svg11.dtd">
<svg version="1.1" id="Layer_1" xmlns="http://www.w3.org/2000/svg" xmlns:xlink="http://www.w3.org/1999/xlink" x="0px" y="0px"
	 width="512px" height="512px" viewBox="0 0 512 512" enable-background="new 0 0 512 512" xml:space="preserve">
<path d="M395.894,45.155L262.238,0.595c-4.372-1.46-9.104-1.46-13.479,0L115.086,45.155c-43.576,14.479-72.96,55.271-72.92,101.191
	v109.141c0,161.36,196.268,250.46,204.668,254.168c5.52,2.46,11.812,2.46,17.319,0c8.404-3.708,204.681-92.808,204.681-254.168
	V146.347C468.873,100.407,439.478,59.635,395.894,45.155z M426.166,255.487c0,116.38-134.801,192.708-170.664,210.979
	c-35.908-18.199-170.668-94.292-170.668-210.979V146.347c0-27.54,17.626-52,43.76-60.731l126.908-42.288l126.884,42.288
	c26.144,8.712,43.768,33.172,43.78,60.731V255.487z"/>
</svg>
