<?xml version="1.0" encoding="utf-8"?>
<!-- Generator: Adobe Illustrator 13.0.0, SVG Export Plug-In . SVG Version: 6.00 Build 14948)  -->
<!DOCTYPE svg PUBLIC "-//W3C//DTD SVG 1.1//EN" "http://www.w3.org/Graphics/SVG/1.1/DTD/svg11.dtd">
<svg version="1.1" id="Layer_1" xmlns="http://www.w3.org/2000/svg" xmlns:xlink="http://www.w3.org/1999/xlink" x="0px" y="0px"
	 width="512px" height="512px" viewBox="0 0 512 512" enable-background="new 0 0 512 512" xml:space="preserve">
<g>
	<g>
		<path d="M490.167,234.167H20.834C9.05,234.167-0.5,243.72-0.5,255.5c0,11.78,9.55,21.333,21.333,21.333h469.333
			c11.779,0,21.333-9.553,21.333-21.333C511.5,243.72,501.947,234.167,490.167,234.167z M20.834,127.5h469.333
			c11.779,0,21.333-9.55,21.333-21.333c0-11.783-9.554-21.333-21.333-21.333H20.834C9.05,84.833-0.5,94.383-0.5,106.167
			C-0.5,117.95,9.05,127.5,20.834,127.5z M490.167,383.5H20.834C9.05,383.5-0.5,393.054-0.5,404.833
			c0,11.78,9.55,21.334,21.333,21.334h469.333c11.779,0,21.333-9.554,21.333-21.334C511.5,393.054,501.947,383.5,490.167,383.5z"/>
	</g>
</g>
</svg>
