<?xml version="1.0" encoding="utf-8"?>
<!-- Generator: Adobe Illustrator 13.0.0, SVG Export Plug-In . SVG Version: 6.00 Build 14948)  -->
<!DOCTYPE svg PUBLIC "-//W3C//DTD SVG 1.1//EN" "http://www.w3.org/Graphics/SVG/1.1/DTD/svg11.dtd">
<svg version="1.1" id="Layer_1" xmlns="http://www.w3.org/2000/svg" xmlns:xlink="http://www.w3.org/1999/xlink" x="0px" y="0px"
	 width="512px" height="512px" viewBox="0 0 512 512" enable-background="new 0 0 512 512" xml:space="preserve">
<g id="Page-1">
	<g id="Social-Icons---Circle" transform="translate(-376.000000, -715.000000)">
		<g id="Google" transform="translate(376.000000, 715.000000)">
			<path id="Oval" fill="#EA4335" d="M255.5,511.5L255.5,511.5c141.385,0,256-114.615,256-256l0,0c0-141.385-114.615-256-256-256
				l0,0c-141.385,0-256,114.615-256,256l0,0C-0.5,396.885,114.115,511.5,255.5,511.5z"/>
			<path fill="#FFFFFF" d="M316.07,339.515c17.455-11,29.654-27.899,34.135-49.88h-89.63V225.16H416.29
				c2.28,9.86,3.8,20.48,3.8,30.34c0,54.396-19.955,96.811-50.635,125.285c-29.205,27.115-68.12,41.59-108.88,41.59
				c-66.04,0-122.798-37.765-149.975-92.955l56.24-42.939c12.96,39.335,49.898,67.63,93.735,67.63
				C282.04,354.11,301.01,349.005,316.07,339.515z M110.6,181.575c27.177-55.183,83.935-92.95,149.975-92.95
				c42.535,0,80.515,15.93,110.14,41.72L322.1,178.89c-16.71-13.655-37.979-21.998-61.524-21.998
				c-43.837,0-80.775,28.292-93.735,67.63c-3.212,9.748-5.012,20.138-5.012,30.978c0,10.785,1.777,21.14,4.96,30.84l-56.21,43.03
				c-10.945-22.24-17.115-47.3-17.115-73.87C93.462,228.908,99.64,203.83,110.6,181.575z"/>
		</g>
	</g>
</g>
</svg>
