<?xml version="1.0" encoding="utf-8"?>
<!-- Generator: Adobe Illustrator 13.0.0, SVG Export Plug-In . SVG Version: 6.00 Build 14948)  -->
<!DOCTYPE svg PUBLIC "-//W3C//DTD SVG 1.1//EN" "http://www.w3.org/Graphics/SVG/1.1/DTD/svg11.dtd">
<svg version="1.1" id="Layer_1" xmlns="http://www.w3.org/2000/svg" xmlns:xlink="http://www.w3.org/1999/xlink" x="0px" y="0px"
	 width="512px" height="512px" viewBox="0 0 512 512" enable-background="new 0 0 512 512" xml:space="preserve">
<g id="Page-1">
	<g id="Social-Icons---Circle-Black" transform="translate(-376.000000, -267.000000)">
		<g id="Linkedin" transform="translate(376.000000, 267.000000)">
			<path id="Oval" fill="#00AAE5" d="M255.5,511.5L255.5,511.5c141.385,0,256-114.615,256-256l0,0c0-141.385-114.615-256-256-256
				l0,0c-141.385,0-256,114.615-256,256l0,0C-0.5,396.885,114.115,511.5,255.5,511.5z"/>
			<path fill="#FFFFFF" d="M419.055,404.835h-64.29v-109.5c0-30.02-11.404-46.795-35.17-46.795
				c-25.85,0-39.354,17.455-39.354,46.795v109.5h-61.955V196.24h61.955v28.1c0,0,18.63-34.47,62.895-34.47
				c44.245,0,75.92,27.015,75.92,82.895V404.835z M144.37,168.93c-21.103,0-38.203-17.238-38.203-38.495
				c0-21.255,17.1-38.49,38.203-38.49c21.105,0,38.195,17.235,38.195,38.49C182.565,151.692,165.475,168.93,144.37,168.93z
				 M112.38,404.835h64.605V196.24H112.38V404.835z"/>
		</g>
	</g>
</g>
</svg>
