<?xml version="1.0" encoding="utf-8"?>
<!-- Generator: Adobe Illustrator 22.1.0, SVG Export Plug-In . SVG Version: 6.00 Build 0)  -->
<svg version="1.1" id="Layer_1" xmlns="http://www.w3.org/2000/svg" xmlns:xlink="http://www.w3.org/1999/xlink" x="0px" y="0px"
	 viewBox="0 0 504 271" style="enable-background:new 0 0 504 271;" xml:space="preserve">
<style type="text/css">
	.st0{fill:#FFFFFF;}
</style>
<g>
	<g>
		<path class="st0" d="M119.8,178.9h-7.3L84.6,80.9c-2.3-8-4.1-14.6-5.2-19.8c-0.9,5-2.2,10.8-3.9,17.4c-1.7,6.5-11,40-28,100.3H40
			L5.1,52h9.3l22.2,81.8c0.9,3.3,1.7,6.4,2.4,9.2c0.8,2.8,1.4,5.4,2,7.9s1.2,4.8,1.6,7.1c0.5,2.3,0.9,4.6,1.3,6.9
			c1.4-7.9,4.3-19.8,8.9-35.8l21.7-77h9.8l25.4,88.4c3,10.2,5.1,18.4,6.3,24.7c0.8-4.2,1.7-8.6,2.9-13.3
			c1.2-4.7,10.1-37.9,26.8-99.7h8.9L119.8,178.9z"/>
	</g>
	<g>
		<path class="st0" d="M462.8,178.9h-7.3l-27.9-97.9c-2.3-8-4.1-14.6-5.2-19.8c-0.9,5-2.2,10.8-3.9,17.4c-1.7,6.5-11,40-28,100.3
			H383L348.1,52h9.3l22.2,81.8c0.9,3.3,1.7,6.4,2.4,9.2c0.8,2.8,1.4,5.4,2,7.9s1.2,4.8,1.7,7.1c0.5,2.3,0.9,4.6,1.3,6.9
			c1.4-7.9,4.3-19.8,8.9-35.8l21.7-77h9.8l25.4,88.4c3,10.2,5.1,18.4,6.3,24.7c0.8-4.2,1.7-8.6,2.9-13.3
			c1.2-4.7,10.1-37.9,26.8-99.7h8.9L462.8,178.9z"/>
	</g>
	<g>
		<path class="st0" d="M186.6,181.7c-17.8-17.8-26.8-41.3-26.8-64.6l0,0c0-23.4,8.9-46.8,26.8-64.6l0,0l2.9-2.9l67.6,67.6
			l-67.6,67.6L186.6,181.7L186.6,181.7z M168.1,117c0,20,7.1,39.9,21.5,55.7l0,0l55.7-55.7l-55.7-55.7
			C175.3,77.1,168.1,97.1,168.1,117L168.1,117z M186.6,58.3l2.9-2.9L186.6,58.3L186.6,58.3z"/>
	</g>
	<g>
		<path class="st0" d="M245.3,117l67.6-67.6l2.9,2.9c17.8,17.8,26.8,41.3,26.8,64.6l0,0c0,23.4-8.9,46.8-26.8,64.6l0,0l-2.9,2.9
			L245.3,117L245.3,117z M312.9,178.7l2.9-2.9L312.9,178.7L312.9,178.7z M257.1,117l55.7,55.7c14.3-15.8,21.5-35.8,21.5-55.7l0,0
			c0-20-7.2-39.9-21.5-55.7l0,0L257.1,117L257.1,117z"/>
	</g>
	<g>
		<path class="st0" d="M186.6,37.3l-2.9-2.9l2.9-2.9c17.8-17.8,41.3-26.8,64.6-26.8l0,0c23.4,0,46.8,8.9,64.6,26.8l0,0l2.9,2.9
			l-67.6,67.6L186.6,37.3L186.6,37.3z M251.2,90.1L307,34.4c-15.8-14.3-35.8-21.5-55.7-21.5l0,0c-20,0-39.9,7.1-55.7,21.5l0,0
			L251.2,90.1L251.2,90.1z"/>
	</g>
	<g>
		<path class="st0" d="M31.6,265.5h-3.1l-5.4-17.9c-0.3-0.8-0.5-1.8-0.9-3s-0.5-1.9-0.5-2.2c-0.3,1.6-0.7,3.4-1.3,5.3l-5.2,17.8
			h-3.1l-7.1-26.7h3.3l4.2,16.5c0.6,2.3,1,4.4,1.3,6.3c0.3-2.2,0.8-4.4,1.5-6.5l4.8-16.3h3.3l5,16.4c0.6,1.9,1.1,4,1.5,6.4
			c0.2-1.7,0.7-3.8,1.3-6.3l4.2-16.5h3.3L31.6,265.5z"/>
		<path class="st0" d="M68,265.5v-13c0-1.6-0.4-2.9-1.1-3.7c-0.7-0.8-1.9-1.2-3.5-1.2c-2.1,0-3.6,0.6-4.6,1.7c-1,1.1-1.5,3-1.5,5.6
			v10.5h-3V237h3v8.6c0,1,0,1.9-0.1,2.6h0.2c0.6-1,1.4-1.7,2.5-2.3c1.1-0.6,2.4-0.8,3.8-0.8c2.4,0,4.3,0.6,5.5,1.7
			c1.2,1.2,1.8,3,1.8,5.6v13.1L68,265.5L68,265.5z"/>
		<path class="st0" d="M97.5,265.8c-3,0-5.3-0.9-7-2.7c-1.7-1.8-2.6-4.3-2.6-7.5c0-3.2,0.8-5.8,2.4-7.7c1.6-1.9,3.7-2.9,6.4-2.9
			c2.5,0,4.5,0.8,6,2.5c1.5,1.7,2.2,3.8,2.2,6.5v1.9H91c0.1,2.4,0.7,4.1,1.8,5.4c1.1,1.2,2.7,1.8,4.8,1.8c2.2,0,4.3-0.5,6.4-1.4v2.7
			c-1.1,0.5-2.1,0.8-3,1C100,265.7,98.8,265.8,97.5,265.8z M96.6,247.6c-1.6,0-2.9,0.5-3.8,1.6c-1,1-1.5,2.5-1.7,4.4h10.5
			c0-1.9-0.4-3.4-1.3-4.4C99.4,248.1,98.2,247.6,96.6,247.6z"/>
		<path class="st0" d="M130.2,265.8c-3,0-5.3-0.9-7-2.7c-1.7-1.8-2.6-4.3-2.6-7.5c0-3.2,0.8-5.8,2.4-7.7c1.6-1.9,3.7-2.9,6.4-2.9
			c2.5,0,4.5,0.8,6,2.5c1.5,1.7,2.2,3.8,2.2,6.5v1.9h-13.8c0.1,2.4,0.7,4.1,1.8,5.4c1.1,1.2,2.7,1.8,4.8,1.8c2.2,0,4.3-0.5,6.4-1.4
			v2.7c-1.1,0.5-2.1,0.8-3,1C132.7,265.7,131.6,265.8,130.2,265.8z M129.4,247.6c-1.6,0-2.9,0.5-3.8,1.6c-1,1-1.5,2.5-1.7,4.4h10.5
			c0-1.9-0.4-3.4-1.3-4.4C132.2,248.1,131,247.6,129.4,247.6z"/>
		<path class="st0" d="M157.6,265.5h-3V237h3V265.5z"/>
		<path class="st0" d="M220.9,252.1c0,4.3-1.1,7.6-3.2,10.1c-2.2,2.5-5.2,3.7-9,3.7c-3.9,0-7-1.2-9.1-3.6c-2.1-2.4-3.2-5.8-3.2-10.2
			c0-4.4,1.1-7.7,3.2-10.1c2.1-2.4,5.2-3.6,9.1-3.6c3.8,0,6.8,1.2,9,3.7C219.8,244.4,220.9,247.8,220.9,252.1z M199.6,252.1
			c0,3.6,0.8,6.4,2.3,8.2c1.5,1.9,3.8,2.8,6.7,2.8c3,0,5.2-0.9,6.7-2.8c1.5-1.9,2.3-4.6,2.3-8.2c0-3.6-0.8-6.3-2.3-8.2
			c-1.5-1.9-3.7-2.8-6.7-2.8c-3,0-5.2,0.9-6.8,2.8C200.4,245.8,199.6,248.5,199.6,252.1z"/>
		<path class="st0" d="M247.2,247.8h-5.1v17.7h-3v-17.7h-3.6v-1.4l3.6-1.1v-1.1c0-4.9,2.2-7.4,6.5-7.4c1.1,0,2.3,0.2,3.7,0.6
			l-0.8,2.4c-1.2-0.4-2.2-0.6-3-0.6c-1.1,0-2,0.4-2.5,1.1c-0.5,0.8-0.8,2-0.8,3.7v1.3h5.1L247.2,247.8L247.2,247.8z"/>
		<path class="st0" d="M307.9,265.5h-3.1l-5.4-17.9c-0.3-0.8-0.5-1.8-0.9-3c-0.3-1.2-0.5-1.9-0.5-2.2c-0.3,1.6-0.7,3.4-1.3,5.3
			l-5.2,17.8h-3.1l-7.1-26.7h3.3l4.2,16.5c0.6,2.3,1,4.4,1.3,6.3c0.3-2.2,0.8-4.4,1.5-6.5l4.8-16.3h3.3l5,16.4
			c0.6,1.9,1.1,4,1.5,6.4c0.2-1.7,0.7-3.8,1.3-6.3l4.2-16.5h3.3L307.9,265.5z"/>
		<path class="st0" d="M338.9,265.8c-3,0-5.3-0.9-7-2.7c-1.7-1.8-2.6-4.3-2.6-7.5c0-3.2,0.8-5.8,2.4-7.7s3.7-2.9,6.4-2.9
			c2.5,0,4.5,0.8,6,2.5s2.2,3.8,2.2,6.5v1.9h-13.8c0.1,2.4,0.7,4.1,1.8,5.4c1.1,1.2,2.7,1.8,4.8,1.8c2.2,0,4.3-0.5,6.4-1.4v2.7
			c-1.1,0.5-2.1,0.8-3,1C341.5,265.7,340.3,265.8,338.9,265.8z M338.1,247.6c-1.6,0-2.9,0.5-3.8,1.6c-1,1-1.5,2.5-1.7,4.4h10.5
			c0-1.9-0.4-3.4-1.3-4.4C340.9,248.1,339.7,247.6,338.1,247.6z"/>
		<path class="st0" d="M372.6,245.1c2.6,0,4.7,0.9,6.1,2.7c1.5,1.8,2.2,4.3,2.2,7.6c0,3.3-0.7,5.8-2.2,7.7c-1.5,1.8-3.5,2.7-6.1,2.7
			c-1.3,0-2.5-0.2-3.6-0.7c-1.1-0.5-2-1.2-2.7-2.2h-0.2l-0.6,2.6h-2.2V237h3v6.9c0,1.5-0.1,2.9-0.1,4.2h0.1
			C367.7,246.1,369.8,245.1,372.6,245.1z M372.1,247.6c-2.1,0-3.6,0.6-4.5,1.8c-0.9,1.2-1.4,3.2-1.4,6c0,2.8,0.5,4.8,1.4,6
			c0.9,1.2,2.4,1.8,4.5,1.8c1.9,0,3.3-0.7,4.2-2c0.9-1.4,1.4-3.3,1.4-5.9c0-2.6-0.5-4.6-1.4-5.8C375.5,248.3,374,247.6,372.1,247.6z
			"/>
		<path class="st0" d="M397.7,240c0-0.7,0.2-1.2,0.5-1.5c0.3-0.3,0.8-0.5,1.3-0.5c0.5,0,0.9,0.2,1.3,0.5c0.4,0.3,0.5,0.8,0.5,1.5
			c0,0.7-0.2,1.2-0.5,1.5c-0.4,0.3-0.8,0.5-1.3,0.5c-0.5,0-0.9-0.2-1.3-0.5C397.9,241.2,397.7,240.7,397.7,240z M401,265.5h-3v-20h3
			V265.5z"/>
		<path class="st0" d="M432.9,265.5v-13c0-1.6-0.4-2.9-1.1-3.7c-0.7-0.8-1.9-1.2-3.5-1.2c-2.1,0-3.6,0.6-4.6,1.7
			c-1,1.1-1.5,3-1.5,5.6v10.5h-3v-20h2.5l0.5,2.7h0.1c0.6-1,1.5-1.8,2.6-2.3c1.1-0.5,2.4-0.8,3.7-0.8c2.4,0,4.2,0.6,5.5,1.7
			c1.2,1.2,1.8,3,1.8,5.6v13.1H432.9z"/>
		<path class="st0" d="M466.2,265.5l-0.6-2.9h-0.1c-1,1.3-2,2.1-3,2.5c-1,0.4-2.2,0.7-3.7,0.7c-2,0-3.5-0.5-4.7-1.5
			c-1.1-1-1.7-2.5-1.7-4.4c0-4,3.2-6.2,9.7-6.4l3.4-0.1v-1.2c0-1.6-0.3-2.7-1-3.5c-0.7-0.8-1.8-1.1-3.2-1.1c-1.7,0-3.6,0.5-5.7,1.5
			l-0.9-2.3c1-0.5,2.1-1,3.2-1.3c1.2-0.3,2.4-0.5,3.5-0.5c2.4,0,4.2,0.5,5.3,1.6c1.2,1.1,1.7,2.8,1.7,5.1v13.7L466.2,265.5
			L466.2,265.5z M459.4,263.3c1.9,0,3.4-0.5,4.5-1.6c1.1-1,1.6-2.5,1.6-4.3v-1.8l-3,0.1c-2.4,0.1-4.2,0.5-5.2,1.1
			c-1.1,0.7-1.6,1.7-1.6,3.1c0,1.1,0.3,1.9,1,2.5C457.2,263,458.2,263.3,459.4,263.3z"/>
		<path class="st0" d="M495.6,245c0.9,0,1.7,0.1,2.4,0.2l-0.4,2.8c-0.8-0.2-1.6-0.3-2.2-0.3c-1.6,0-3,0.7-4.2,2
			c-1.2,1.3-1.7,3-1.7,4.9v10.7h-3v-20h2.5l0.3,3.7h0.1c0.7-1.3,1.6-2.3,2.7-3C493.2,245.4,494.4,245,495.6,245z"/>
	</g>
	<g>
		<path class="st0" d="M251.2,208.5c-23.4,0-46.8-8.9-64.6-26.8l0,0l-2.9-2.9l67.6-67.6l67.6,67.6l-2.9,2.9
			C298,199.5,274.6,208.5,251.2,208.5L251.2,208.5C251.2,208.5,251.2,208.5,251.2,208.5L251.2,208.5z M251.2,200.1
			c20,0,39.9-7.1,55.7-21.5l0,0l-55.7-55.7l-55.7,55.7C211.3,193,231.2,200.1,251.2,200.1L251.2,200.1z"/>
	</g>
</g>
</svg>
